<svg width="293" height="407" viewBox="0 0 293 407" fill="none" xmlns="http://www.w3.org/2000/svg">
<path d="M257.754 405.458L148.085 342.139C144.273 339.939 144.75 336.094 149.153 333.552C153.556 331.011 160.214 330.735 164.028 332.936L273.696 396.252C277.509 398.455 277.03 402.298 272.628 404.84C268.225 407.382 261.566 407.658 257.754 405.458Z" fill="#F2F2F2"/>
<path d="M277.61 70.0257L159.445 1.78835C155.562 -0.451646 152.036 -0.507627 149.369 1.17504L149.364 1.14835L134.537 9.73637L144.48 11.5897C144.448 12.099 144.418 12.611 144.418 13.1483V291.854C144.418 302.919 151.146 315.774 159.445 320.564L275.95 387.843C274.889 391.171 272.632 398.171 272.632 398.171L287.13 389.762H287.128C290.489 388.027 292.636 383.688 292.636 377.441V98.7364C292.636 87.671 285.909 74.8164 277.61 70.0257Z" fill="#5F92D3"/>
<path d="M144.418 291.854C144.418 302.919 151.146 315.774 159.445 320.566L275.95 387.843C274.889 391.171 272.632 398.171 272.632 398.171L287.13 389.763L287.128 389.762C290.489 388.027 292.636 383.688 292.636 377.441V98.7364C292.636 92.963 290.796 86.7137 287.865 81.3657L144.418 164.184V291.854Z" fill="#263C7A"/>
<path d="M262.704 397.436L144.54 329.2C136.241 324.408 129.513 311.555 129.513 300.49V21.7857C129.513 10.7204 136.241 5.63371 144.54 10.4257L262.704 78.6617C271.002 83.4537 277.73 96.3057 277.73 107.371V386.076C277.73 397.141 271.002 402.228 262.704 397.436Z" fill="#D9EFFB"/>
<path d="M264.244 77.6711L146.078 9.43509C141.8 6.96442 137.948 7.13774 135.21 9.38574C137.774 8.15241 141.012 8.38841 144.54 10.4244L262.704 78.6617C271.002 83.4524 277.73 96.3058 277.73 107.371V386.076C277.73 391.435 276.142 395.375 273.573 397.486C277.04 395.817 279.27 391.448 279.27 385.087V106.382C279.27 95.3164 272.544 82.4618 264.244 77.6711Z" fill="white"/>
<path d="M260.504 388.21L146.96 322.642C140.792 319.08 135.792 309.526 135.792 301.302V26.5564C135.792 18.3311 140.792 14.5511 146.96 18.1124L260.504 83.6804C266.672 87.2404 271.672 96.7951 271.672 105.019V379.766C271.672 387.99 266.672 391.771 260.504 388.21Z" fill="white"/>
<path d="M261.438 387.824L147.896 322.256C141.726 318.695 136.726 309.142 136.726 300.916V26.171C136.726 21.555 138.302 18.3417 140.774 17.0363C137.772 17.9723 135.792 21.383 135.792 26.555V301.302C135.792 309.526 140.792 319.08 146.96 322.642L260.504 388.208C263.21 389.772 265.69 389.919 267.624 388.9C265.853 389.452 263.726 389.146 261.438 387.824Z" fill="#5F92D3"/>
<path d="M214.057 303.826L158.322 271.648V136.164L184.582 151.324C202.821 161.855 214.057 181.315 214.057 202.376V303.826Z" fill="#F2F2F2"/>
<path d="M138.394 123.058L138.402 123.07C132.777 119.719 124.961 120.131 116.329 125.116C99.2396 134.982 85.3369 159.063 85.3369 178.795V193.034V193.035L85.9236 193.38L141.76 226.227L142.605 209.186L143.302 202.57L146.262 192.295L146.602 190.723L152.95 177.927L157.952 171.682L162.006 166.848L171.882 159.07L172.752 158.423L177.608 156.335L184.138 154.636H189.233L194.929 155.634L138.394 123.058Z" fill="#D9EFFB"/>
<path d="M145.512 254.754L147.321 253.71V188.834C146.381 190.114 145.941 191.758 145.512 193.426V254.754Z" fill="#D9EFFB"/>
<path d="M201.934 287.262L145.512 254.754L146.093 193.339L148.248 187.135L154.778 175.903L162.506 166.739L169.472 161.167L177.004 156.595L190.669 155.028L197.896 159.12L201.934 165.302L203.208 174.792L202.772 277.452L201.934 287.262Z" fill="#D9EFFB"/>
<path d="M138.402 123.07C133.696 120.266 127.453 120.11 120.485 123.048L177.973 156.239L184.138 154.636H189.233L194.929 155.634L138.394 123.058L138.402 123.07Z" fill="#5F92D3"/>
<path d="M121.838 122.514C120.049 123.174 118.21 124.03 116.329 125.116C115.072 125.843 113.833 126.654 112.613 127.527L169.921 160.615L171.882 159.07L172.752 158.423L177.608 156.335L179.545 155.831L121.838 122.514Z" fill="#EDF9FE"/>
<path d="M162.49 166.466L170.286 160.326L112.996 127.25C110.402 129.07 107.904 131.203 105.54 133.584L162.49 166.466Z" fill="white"/>
<path d="M203.744 286.218L201.934 287.262V176.56C201.934 157.98 188.844 150.423 172.752 159.714C156.66 169.003 143.569 191.679 143.569 210.258V225.183L141.76 226.227V211.302C141.76 191.571 155.662 167.49 172.752 157.624C189.841 147.756 203.744 155.783 203.744 175.516V286.218Z" fill="#5F92D3"/>
<path d="M102.45 168.208L99.2743 181.192L100.862 202.168L96.8356 199.799L91.6836 188.399L96.1943 173.987L102.45 168.208Z" fill="#B4E5EF"/>
<path d="M194.769 251.296C194.428 251.296 194.069 251.192 193.712 250.987L152.681 227.298C151.472 226.599 150.525 224.816 150.525 223.238V190.955C150.525 190.006 150.876 189.259 151.486 188.906C151.733 188.764 152.002 188.694 152.285 188.694C152.625 188.694 152.984 188.796 153.341 189.003L194.373 212.692C195.581 213.391 196.528 215.174 196.528 216.751V249.035C196.528 249.984 196.177 250.731 195.566 251.083C195.32 251.226 195.05 251.296 194.769 251.296ZM152.286 190.015L152.146 190.05C152.008 190.13 151.845 190.415 151.845 190.955V223.238C151.845 224.351 152.53 225.686 153.341 226.154L194.373 249.844C194.452 249.89 194.618 249.975 194.766 249.975C194.817 249.975 194.865 249.966 194.906 249.94C195.045 249.86 195.208 249.575 195.208 249.035V216.751C195.208 215.639 194.522 214.303 193.712 213.836L152.681 190.146C152.601 190.1 152.434 190.015 152.286 190.015Z" fill="#EAF7FD"/>
<path d="M165.418 228.614L165.129 228.446C164.06 227.828 163.193 226.172 163.193 224.746V209.36C163.193 207.935 164.06 207.28 165.129 207.898L165.418 208.064C166.488 208.682 167.354 210.339 167.354 211.764V227.148C167.354 228.574 166.488 229.231 165.418 228.614Z" fill="#B8D8ED"/>
<path d="M173.67 233.378L173.381 233.211C172.313 232.592 171.445 230.936 171.445 229.511V220.506C171.445 219.079 172.313 218.424 173.381 219.042L173.67 219.208C174.74 219.826 175.608 221.483 175.608 222.908V231.912C175.608 233.34 174.74 233.995 173.67 233.378Z" fill="#B8D8ED"/>
<path d="M181.924 238.142L181.634 237.975C180.565 237.356 179.697 235.7 179.697 234.275V212.842C179.697 211.415 180.565 210.76 181.634 211.378L181.924 211.544C182.993 212.162 183.86 213.818 183.86 215.244V236.678C183.86 238.104 182.993 238.759 181.924 238.142Z" fill="#4067B1"/>
<path d="M62.381 355.706C50.9597 362.3 32.4424 362.299 21.0209 355.706C9.59944 349.112 9.59904 338.42 21.0204 331.827C32.441 325.234 50.9597 325.234 62.3797 331.827C73.8024 338.42 73.8024 349.112 62.381 355.706Z" fill="#F2F2F2"/>
<path d="M27.3486 166.556C27.3486 166.556 28.0006 180.015 29.0252 189.059C30.0496 198.103 51.8318 182.112 51.8318 182.112V171.814L27.3486 166.556Z" fill="#EE1696"/>
<path d="M38.9504 333.999C39.2771 334.816 44.9211 341.687 50.5651 343.406C53.0184 344.152 54.6691 344.248 55.7491 344.122C56.8344 343.992 57.5051 342.874 57.1397 341.845C56.1677 339.111 53.3837 333.415 46.3117 329.908C36.7411 325.166 38.9504 333.999 38.9504 333.999Z" fill="#263C7A"/>
<path d="M37.0692 336.638C37.0692 336.638 39.1959 341.628 39.8492 345.799C40.2492 348.345 38.8519 351.648 37.7026 353.84C36.9892 355.2 35.1799 355.506 34.0426 354.474C32.1986 352.799 29.8507 349.893 29.4616 345.717C28.8075 338.683 29.4616 337.457 29.4616 337.457L37.0692 336.638Z" fill="#263C7A"/>
<path d="M23.4728 251.618C23.4728 251.618 22.7364 260.491 23.4728 270.306C24.2088 280.122 26.8441 326.023 27.3353 337.067C27.3353 337.067 27.09 340.408 33.5623 339.674C40.0343 338.938 39.5129 335.226 39.5129 335.226C39.5129 335.226 48.6009 335.103 48.8876 329.744C49.1743 324.388 58.1969 265.768 58.1969 244.694L23.4728 251.618Z" fill="#D9EFFB"/>
<path d="M61.5596 205.738L66.0129 212.634L81.3196 231.124C81.3196 231.124 80.7929 232.84 78.8876 233.29C77.3996 233.639 64.5249 221.355 58.9649 215.966C57.4876 214.534 57.2409 212.255 58.3769 210.54L61.5596 205.738Z" fill="#FAB6A9"/>
<path d="M52.8716 177.427C52.8716 177.427 59.9463 177.243 62.4089 187.467C64.8716 197.69 66.7969 210.491 64.6556 211.555C58.2262 214.748 54.1569 211.012 54.1569 211.012L52.8716 177.427Z" fill="#5F92D3"/>
<path d="M54.989 177.86C53.7823 177.356 52.4277 177.291 51.1704 177.651C45.1437 179.382 22.4838 186.031 18.7494 189.224C14.4344 192.912 25.2204 213.636 25.0646 220.431C24.9089 227.227 24.1433 235.238 23.5433 242.624C22.9427 250.011 22.1302 254.06 28.1718 257.2C34.213 260.342 44.529 260.486 52.2504 254.603C59.973 248.719 58.5717 244.692 58.2504 240.422C57.929 236.15 55.2997 217.676 55.5277 212.432C55.5277 212.432 58.2477 210.427 60.2637 206.99C62.2797 203.552 58.7197 197.235 57.241 193.127C55.7637 189.018 58.0744 184.322 57.6184 180.97C57.3824 179.244 56.2797 178.4 54.989 177.86Z" fill="#5F92D3"/>
<path d="M47.7452 184.926C48.2225 188.659 44.7985 192.174 40.0972 192.775C35.3958 193.378 31.1958 190.84 30.7185 187.107C30.2398 183.375 33.6638 179.86 38.3665 179.258C43.0678 178.656 47.2665 181.194 47.7452 184.926Z" fill="white"/>
<path d="M45.3172 185.238C45.6585 187.906 43.2105 190.416 39.8505 190.848C36.4892 191.278 33.4879 189.463 33.1465 186.795C32.8052 184.128 35.2519 181.618 38.6132 181.186C41.9732 180.755 44.9745 182.57 45.3172 185.238Z" fill="#FAB6A9"/>
<path d="M41.9772 176.478C41.9772 176.478 37.8865 173.115 37.0825 174.818C36.2785 176.522 35.6172 183.835 35.6172 183.835L43.7398 186.018L42.5078 178.608C42.5078 178.608 44.1332 177.23 41.9772 176.478Z" fill="#FAB6A9"/>
<path d="M54.6731 168.464C54.2771 175.152 48.5371 180.252 41.8491 179.858C35.1624 179.463 30.0615 173.723 30.4571 167.035C30.8518 160.348 36.5931 155.247 43.2798 155.642C49.9664 156.038 55.0677 161.779 54.6731 168.464Z" fill="#FAB6A9"/>
<path d="M36.5158 176.938C36.4438 177.319 36.3757 177.73 36.3091 178.147C37.1251 182.367 43.4397 184.215 43.4397 184.215L42.5077 178.608C42.5077 178.608 43.2731 177.959 43.0557 177.308C40.5611 176.52 37.4158 175.823 36.5158 176.938Z" fill="#EB8B8A"/>
<path d="M54.6731 168.464C54.2771 175.152 48.5371 180.252 41.8491 179.858C35.1624 179.463 30.0615 173.723 30.4571 167.035C30.8518 160.348 36.5931 155.247 43.2798 155.642C49.9664 156.038 55.0677 161.779 54.6731 168.464Z" fill="#FAB6A9"/>
<path d="M12.6797 219.092L14.0381 251.55L18.7828 252.039L21.8714 222.82L12.6797 219.092Z" fill="#FAB6A9"/>
<path d="M28.274 216.379C28.0177 215.248 25.9401 214.319 25.6229 212.847C23.9937 205.286 23.6016 194.135 23.6016 194.135L22.2761 209.366C23.8052 213.883 25.1199 218.028 25.0647 220.431C24.9735 224.419 24.6699 228.828 24.3152 233.283L24.3157 233.295C24.3157 233.295 29.8442 223.31 28.274 216.379Z" fill="#4067B1"/>
<path d="M19.6558 188.559C19.6558 188.559 15.8615 190.01 13.7136 201.663C11.5667 213.318 9.96043 224.992 13.7886 226.498C17.6172 228.002 20.8158 229.132 21.9418 226.016C23.0672 222.899 23.7652 207.878 23.9063 202.476C24.0475 197.074 24.2532 189.627 19.6558 188.559Z" fill="#5F92D3"/>
<path d="M80.185 229.772C80.185 229.772 82.2397 230.527 83.725 232.146C84.9437 233.472 85.6103 234.599 86.1437 235.394C87.325 237.156 88.3224 240.967 87.601 241.442C86.881 241.916 82.7597 235.062 82.0943 236.655C81.4303 238.25 82.0997 239.724 81.2477 239.747C80.3957 239.772 77.4344 232.856 75.1037 230.712C72.7744 228.57 80.185 229.772 80.185 229.772Z" fill="#FAB6A9"/>
<path d="M39.5132 335.226C39.5132 335.226 40.6385 335.21 42.1092 334.956L43.8892 263.603L39.5132 335.226Z" fill="#4067B1"/>
<path d="M32.6438 296.683L30.1198 293.387L3.56777 278.015C2.7167 277.52 2.02764 276.2 2.0287 275.066L2.05217 253.327L0.525635 251.334L1.96003 250.503L1.9615 250.506C2.23657 250.328 2.6011 250.332 3.0027 250.566L33.0931 267.987C33.9451 268.479 34.6331 269.799 34.6318 270.935L34.6064 294.61C34.6064 295.248 34.3864 295.692 34.0438 295.872L32.6438 296.683Z" fill="#5F92D3"/>
<path d="M14.2828 284.218L12.3964 283.126L2.04124 265.139L2.05217 253.327L0.525635 251.334L1.96003 250.503L1.9615 250.506C2.23657 250.328 2.6011 250.332 3.0027 250.566L33.0931 267.987C33.5438 268.247 33.9464 268.739 34.2278 269.312L14.2828 284.218Z" fill="#5F92D3"/>
<path d="M1.20324 252.218L0.525635 251.334L1.96003 250.503L1.9615 250.506C2.23657 250.328 2.6011 250.332 3.0027 250.566L3.53284 250.871L1.20324 252.218Z" fill="#5F92D3"/>
<path d="M33.3664 268.18C34.0357 268.727 34.5531 269.76 34.6237 270.714L31.6824 272.411L30.2744 269.964L33.3664 268.18Z" fill="#5F92D3"/>
<path d="M31.6597 268.816L1.56987 251.395C0.718274 250.903 0.0266698 251.423 0.0256032 252.559L9.4775e-07 276.234C-0.000932386 277.368 0.687605 278.688 1.53907 279.183L31.6304 296.604C32.4811 297.096 33.1731 296.575 33.1744 295.44L33.1997 271.766C33.2011 270.63 32.5117 269.31 31.6597 268.816Z" fill="#D9EFFB"/>
<path d="M25.4787 285.796L24.0459 284.968V272.656L25.4787 273.483V285.796Z" fill="white"/>
<path d="M22.1308 283.863L20.6975 283.035V270.723L22.1308 271.551V283.863Z" fill="white"/>
<path d="M18.7829 281.93L17.3491 281.103V268.791L18.7829 269.618V281.93Z" fill="white"/>
<path d="M14.0757 251.278C14.0757 251.278 12.8211 258.854 13.0101 261.282C13.1987 263.707 14.4976 267.71 15.4835 267.626C16.4689 267.54 15.5159 257.867 17.2471 258.831C18.9783 259.795 19.1605 261.447 19.9444 260.863C20.7283 260.279 18.5772 252.012 19.1507 248.426C19.7241 244.84 14.0757 251.278 14.0757 251.278Z" fill="#FAB6A9"/>
<path d="M47.2224 168.808C53.3064 170.97 54.4918 169.652 54.5491 169.58C54.6051 169.214 54.6504 168.844 54.6731 168.464C54.7517 167.123 54.5998 165.82 54.2678 164.59L38.4824 162.459C38.4824 162.459 40.9744 166.59 47.2224 168.808Z" fill="#EB8B8A"/>
<path d="M55.1091 156.382C53.6758 155.152 48.5011 149.075 39.2318 150.51C33.4385 151.406 28.5549 155.356 27.4715 164.372C26.7418 170.448 28.9715 176.43 33.0785 180.852C33.3011 180.75 33.5305 180.655 33.7371 180.519C36.0585 178.992 36.3091 178.152 36.3091 178.144L36.8211 173.544C36.8051 172.891 36.3171 172.31 35.6651 172.268C35.1611 172.238 34.5491 171.995 33.9665 171.234C32.6345 169.492 33.2491 166.778 35.9118 166.676C37.3038 166.623 37.8425 165.87 38.0398 165.163C38.2105 164.548 38.8598 164.206 39.4598 164.423C42.4891 165.519 49.9545 167.883 54.7585 166.522C60.9051 164.78 56.5438 157.611 55.1091 156.382Z" fill="#EE1696"/>
<path d="M48.1972 174.288L51.9078 173.268C51.9078 173.268 50.1358 176.055 47.5505 176.766C44.9638 177.475 44.5625 175.287 44.5625 175.287L48.1972 174.288Z" fill="white"/>
<path d="M20.3845 260.628L17.2219 258.818L18.4105 260.756L20.0085 261.347L20.3845 260.628Z" fill="#5F92D3"/>
<path d="M90.8825 397.511C104.669 405.47 127.02 405.47 140.806 397.511C154.593 389.551 154.593 376.646 140.808 368.687C127.021 360.728 104.669 360.728 90.8825 368.687C77.0971 376.647 77.0971 389.552 90.8825 397.511Z" fill="#F2F2F2"/>
<path d="M94.2142 372.296C91.7542 373.348 90.2076 376.088 90.4116 379.035C90.5076 380.426 90.6756 381.722 90.9662 382.329C91.7476 383.972 94.3129 386.227 98.4062 384.61C102.501 382.991 111.592 374.45 111.933 368.858C112.566 358.471 100.689 369.531 94.2142 372.296Z" fill="#263C7A"/>
<path d="M118.267 389.475C118.267 389.475 117.284 395.463 117.761 396.562C118.239 397.659 121.088 400.002 125.296 399.495C129.505 398.988 141.615 394.814 144.312 386.833C148.493 374.46 120.937 387.76 120.937 387.76L118.267 389.475Z" fill="#263C7A"/>
<path d="M130.1 293.743L131.036 387.228C130.937 390.479 128.808 393.226 125.944 393.708C125.591 393.768 125.211 393.816 124.805 393.851C121.905 394.106 120.216 392.862 119.252 391.555C118.471 390.496 118.06 389.154 118.003 387.78L116.809 347.874L110.851 312.192L102.608 375.343C102.476 377.051 101.657 378.629 100.343 379.502C99.4332 380.103 98.2012 380.57 96.5839 380.519C94.2252 380.45 92.5866 379.186 91.5879 378.059C90.7946 377.167 90.3772 375.939 90.3946 374.679L93.6612 336.682L94.8772 288.216L130.1 293.743Z" fill="#D9EFFB"/>
<path d="M117.993 210.066L116.516 218.583C116.516 218.583 116.46 221.49 119.705 222.295C122.95 223.1 123.953 221.006 123.953 221.006L125.421 211.411L117.993 210.066Z" fill="#FAB6A9"/>
<path d="M135.877 205.399C133.573 212.696 126.445 216.932 119.954 214.859C113.464 212.787 110.069 205.19 112.373 197.892C114.677 190.595 121.806 186.359 128.296 188.432C134.788 190.506 138.181 198.102 135.877 205.399Z" fill="#FAB6A9"/>
<path d="M118.379 218.739C118.155 218.647 104.611 209.927 99.6039 219.054C91.4412 233.934 97.4119 250.994 94.4999 288.036C94.0119 294.236 102.841 298.012 107.016 300.398C110.729 302.519 114.887 303.819 119.164 303.852C123.396 303.887 131.512 300.124 131.216 294.591C129.861 269.144 132.112 247.695 134.189 226.883C134.189 226.883 131.592 224.088 118.379 218.739Z" fill="#5F92D3"/>
<path d="M110.85 312.192L102.608 375.343C102.476 377.051 101.657 378.629 100.342 379.502C100.126 379.643 99.8904 379.776 99.6384 379.899C101.349 378.616 106.346 325.61 107.27 319.714C108.196 313.814 110.85 312.192 110.85 312.192Z" fill="#4067B1"/>
<path d="M162.293 226.448L173.632 203.943L170.074 201.695L158.322 218.839L162.293 226.448Z" fill="#FAB6A9"/>
<path d="M87.5024 202.551L93.0184 177.456L97.4118 177.504L95.7624 198.315L87.5024 202.551Z" fill="#FAB6A9"/>
<path d="M134.189 226.883C134.189 226.883 146.872 231.886 157.768 218.139C158.728 216.928 160.7 217.064 161.268 218.37C162.248 220.623 163.476 224.026 161.988 227.222C155.401 241.354 132.932 240.863 127.517 248.787C122.103 256.71 134.189 226.883 134.189 226.883Z" fill="#5F92D3"/>
<path d="M109.789 215.612C109.789 215.612 99.317 216.416 97.8103 207.352C97.0343 202.686 96.801 199.899 96.757 198.294C96.7276 197.206 95.7836 196.382 94.7036 196.516C92.1956 196.827 88.313 197.575 87.7876 199.256C87.001 201.766 85.521 214.072 95.865 232.959C102.64 245.331 109.789 215.612 109.789 215.612Z" fill="#5F92D3"/>
<path d="M92.9971 177.518L93.0971 174.658C93.1317 173.647 93.4264 172.663 93.9517 171.799L96.8517 167.035L97.6091 166.082C98.3077 165.202 99.5571 164.988 100.508 165.587L101.176 166.007C102.025 166.542 102.516 167.499 102.45 168.502L100.95 172.572L102.848 172.206C103.216 172.134 103.572 172.378 103.638 172.747C103.694 173.062 103.524 173.371 103.228 173.491L100.129 174.74L97.3157 178.724L92.9971 177.518Z" fill="#FAB6A9"/>
<path d="M173.716 204.084L175.044 201.548C175.512 200.652 175.741 199.651 175.711 198.64L175.544 193.066L175.357 191.863C175.185 190.752 174.205 189.951 173.083 190L172.295 190.035C171.292 190.079 170.392 190.671 169.953 191.574L169.245 195.855L167.777 194.598C167.492 194.354 167.063 194.39 166.821 194.679C166.617 194.923 166.613 195.279 166.812 195.528L168.888 198.146L169.425 203.6L173.716 204.084Z" fill="#FAB6A9"/>
<path d="M125.92 245.952C124.817 250.978 131.457 288.892 124.073 302.758C127.767 301.262 131.416 298.335 131.216 294.592C130.248 276.395 131.125 260.246 132.461 244.907C138.776 241.708 148.641 239.8 155.62 234.69C148.137 237.45 126.904 241.466 125.92 245.952Z" fill="#4067B1"/>
<path d="M113.509 216.332L115.389 214.402C115.389 214.402 118.484 217.562 120.968 218.11C120.968 218.11 123.96 218.958 125.421 219.03L126.63 222.368C126.63 222.368 116.781 221.663 113.509 216.332Z" fill="white"/>
<path d="M127.044 205.627C127.563 205.616 128.044 205.38 128.34 204.954C128.855 204.21 128.529 200.787 130.113 200.222C132.591 199.339 138.465 202.438 139.093 193.503C139.419 188.859 137.159 187.626 137.169 185.082C137.169 185.082 137.365 186.356 125.416 185.564C113.468 184.77 109.583 195.38 109.3 200.434C109.017 205.487 111.463 213.796 119.629 214.938C120.984 215.127 126.671 210.554 126.524 209.954C126.377 209.354 124.231 209.387 124.541 207.642C124.799 206.186 125.685 205.651 127.044 205.627Z" fill="#263C7A"/>
<path d="M200.302 335.564L164.2 314.719C162.596 313.794 161.294 311.307 161.294 309.17V282.324C161.294 280.184 162.596 279.202 164.2 280.128L200.302 300.972C201.906 301.899 203.208 304.383 203.208 306.522V333.367C203.208 335.507 201.906 336.49 200.302 335.564Z" fill="#F2F2F2"/>
<path d="M196.731 292.976L160.627 272.131C159.912 271.72 159.267 271.704 158.761 271.982L158.764 271.959L155.261 273.982C155.261 273.982 156.812 274.547 157.723 274.882V301.174C157.723 303.312 159.023 305.796 160.627 306.723L195.135 326.646V329.731L198.673 327.694L198.655 327.686C199.252 327.323 199.635 326.522 199.635 325.371V298.526C199.635 296.387 198.335 293.903 196.731 292.976Z" fill="#263C7A"/>
<path d="M193.164 329.623L157.061 308.779C155.457 307.852 154.156 305.367 154.156 303.228V276.384C154.156 274.244 155.457 273.262 157.061 274.187L193.164 295.031C194.768 295.959 196.069 298.443 196.069 300.582V327.427C196.069 329.567 194.768 330.55 193.164 329.623Z" fill="#5F92D3"/>
<path d="M193.164 295.031L157.061 274.187C156.149 273.662 155.345 273.768 154.812 274.339C155.201 274.306 155.632 274.398 156.094 274.664L192.197 295.51C193.801 296.435 195.101 298.919 195.101 301.059V327.904C195.101 328.827 194.849 329.518 194.445 329.95C195.404 329.87 196.069 328.95 196.069 327.427V300.582C196.069 298.443 194.768 295.958 193.164 295.031Z" fill="white"/>
<path d="M169.203 299.527C169.203 301.08 168.112 301.711 166.767 300.934C165.421 300.158 164.331 298.268 164.331 296.715C164.331 295.162 165.421 294.532 166.767 295.308C168.112 296.086 169.203 297.974 169.203 299.527Z" fill="white"/>
<path d="M176.581 303.79C176.581 305.343 175.49 305.971 174.145 305.195C172.8 304.418 171.71 302.528 171.71 300.975C171.71 299.422 172.8 298.794 174.145 299.57C175.49 300.347 176.581 302.235 176.581 303.79Z" fill="white"/>
<path d="M183.961 308.05C183.961 309.603 182.87 310.232 181.525 309.456C180.18 308.679 179.089 306.79 179.089 305.236C179.089 303.683 180.18 303.054 181.525 303.83C182.87 304.607 183.961 306.496 183.961 308.05Z" fill="white"/>
<path d="M260.182 370.135L224.078 349.292C222.474 348.364 221.174 345.88 221.174 343.74V283.326C221.174 281.186 222.474 280.203 224.078 281.13L260.182 301.974C261.786 302.9 263.086 305.386 263.086 307.523V367.939C263.086 370.078 261.786 371.062 260.182 370.135Z" fill="#F2F2F2"/>
<path d="M256.609 293.978L220.506 273.134C219.792 272.722 219.146 272.706 218.64 272.984L218.642 272.962L215.141 274.984C215.141 274.984 216.692 275.55 217.601 275.883V335.744C217.601 337.884 218.902 340.368 220.506 341.295L255.014 361.219V364.303L258.552 362.266L258.533 362.259C259.13 361.895 259.514 361.094 259.514 359.945V299.527C259.514 297.39 258.213 294.904 256.609 293.978Z" fill="#D1078D"/>
<path d="M253.044 364.195L216.94 343.351C215.336 342.424 214.036 339.94 214.036 337.8V277.386C214.036 275.246 215.336 274.263 216.94 275.188L253.044 296.034C254.648 296.96 255.948 299.444 255.948 301.583V361.999C255.948 364.138 254.648 365.122 253.044 364.195Z" fill="#EE1696"/>
<path d="M253.044 296.032L216.94 275.188C216.028 274.663 215.224 274.771 214.692 275.34C215.08 275.307 215.512 275.399 215.973 275.666L252.076 296.511C253.681 297.436 254.981 299.922 254.981 302.06V362.475C254.981 363.399 254.729 364.088 254.325 364.52C255.284 364.441 255.948 363.52 255.948 361.999V301.583C255.948 299.444 254.648 296.96 253.044 296.032Z" fill="white"/>
<path d="M240.258 304.222C240.258 307.579 237.901 308.942 234.992 307.262C232.082 305.582 229.725 301.499 229.725 298.139C229.725 294.782 232.082 293.419 234.992 295.099C237.901 296.779 240.258 300.862 240.258 304.222Z" fill="white"/>
<path d="M242.454 313.715L242.432 313.559C242.208 312.144 240.868 310.903 239.985 311.218C238.62 311.703 236.884 311.466 234.992 310.372C233.1 309.28 231.364 307.515 229.998 305.452C229.116 304.118 227.777 303.812 227.552 304.967L227.529 305.098L225.03 320.962L244.953 332.462L242.454 313.715Z" fill="white"/>
<path d="M246.363 344.535L222.177 330.572V328.828L246.363 342.792V344.535Z" fill="white"/>
<path d="M239.06 347.935L222.177 338.187V336.445L239.06 346.193V347.935Z" fill="white"/>
<path d="M236.783 342.812L222.177 334.38V332.636L236.783 341.07V342.812Z" fill="white"/>
<path d="M246.362 348.345L239.06 344.128V342.384L246.362 346.6V348.345Z" fill="white"/>
<path d="M260.182 284.684L224.078 263.84C222.474 262.914 221.174 260.428 221.174 258.291V197.875C221.174 195.736 222.474 194.752 224.078 195.679L260.182 216.522C261.786 217.45 263.086 219.934 263.086 222.072V282.488C263.086 284.628 261.786 285.611 260.182 284.684Z" fill="#F2F2F2"/>
<path d="M256.609 208.526L220.506 187.683C219.792 187.27 219.146 187.254 218.64 187.532L218.642 187.51L215.141 189.532C215.141 189.532 216.692 190.098 217.601 190.432V250.295C217.601 252.434 218.902 254.918 220.506 255.844L255.014 275.767V278.851L258.552 276.815L258.533 276.807C259.13 276.443 259.514 275.643 259.514 274.492V214.076C259.514 211.938 258.213 209.454 256.609 208.526Z" fill="#5F92D3"/>
<path d="M253.044 278.743L216.94 257.9C215.336 256.974 214.036 254.488 214.036 252.35V191.934C214.036 189.795 215.336 188.811 216.94 189.739L253.044 210.582C254.648 211.508 255.948 213.994 255.948 216.132V276.548C255.948 278.686 254.648 279.67 253.044 278.743Z" fill="#D9EFFB"/>
<path d="M253.044 210.582L216.94 189.739C216.028 189.211 215.224 189.319 214.692 189.888C215.08 189.856 215.512 189.948 215.973 190.215L252.076 211.059C253.681 211.986 254.981 214.47 254.981 216.61V277.024C254.981 277.947 254.729 278.638 254.325 279.071C255.284 278.991 255.948 278.071 255.948 276.548V216.132C255.948 213.994 254.648 211.508 253.044 210.582Z" fill="white"/>
<path d="M246.418 224.226L222.233 210.262V208.518L246.418 222.483V224.226Z" fill="#5F92D3"/>
<path d="M239.116 227.627L222.233 217.879V216.135L239.116 225.883V227.627Z" fill="#5F92D3"/>
<path d="M236.838 222.503L222.233 214.071V212.327L236.838 220.759V222.503Z" fill="#5F92D3"/>
<path d="M246.418 228.034L239.116 223.818V222.074L246.418 226.291V228.034Z" fill="#5F92D3"/>
<path d="M246.418 238.936L222.233 224.971V223.228L246.418 237.192V238.936Z" fill="#5F92D3"/>
<path d="M239.116 242.336L222.233 232.588V230.846L239.116 240.592V242.336Z" fill="#5F92D3"/>
<path d="M236.838 237.212L222.233 228.78V227.036L236.838 235.468V237.212Z" fill="#5F92D3"/>
<path d="M246.418 242.743L239.116 238.527V236.784L246.418 241V242.743Z" fill="#5F92D3"/>
<path d="M246.418 253.646L222.233 239.682V237.939L246.418 251.903V253.646Z" fill="#5F92D3"/>
<path d="M239.116 257.046L222.233 247.298V245.555L239.116 255.302V257.046Z" fill="#5F92D3"/>
<path d="M236.838 251.922L222.233 243.49V241.746L236.838 250.18V251.922Z" fill="#5F92D3"/>
<path d="M246.418 257.454L239.116 253.238V251.494L246.418 255.711V257.454Z" fill="#5F92D3"/>
<path d="M170.201 249.64L152.948 239.682V238.071L170.201 248.031V249.64Z" fill="white"/>
<path d="M180.894 255.815L173.526 251.562V249.951L180.894 254.204V255.815Z" fill="white"/>
<path d="M170.796 253.491L163.428 249.238V247.628L170.796 251.882V253.491Z" fill="white"/>
<path d="M186.753 262.704L173.526 255.068V253.458L186.753 261.094V262.704Z" fill="white"/>
<path d="M195.806 271.438L176.244 260.143V258.532L195.806 269.828V271.438Z" fill="white"/>
<path d="M191.433 261.9L184.066 257.646V256.036L191.433 260.291V261.9Z" fill="white"/>
<path d="M160.317 247.442L152.948 243.187V241.576L160.317 245.831V247.442Z" fill="white"/>
<path d="M173.085 258.319L152.912 246.674V245.063L173.085 256.71V258.319Z" fill="white"/>
<path d="M165.318 257.343L153.149 250.315V248.706L165.318 255.732V257.343Z" fill="white"/>
<path d="M255.533 173.299L161.123 118.792C155.009 115.262 150.053 105.794 150.053 97.6417C150.053 89.4911 155.009 85.7431 161.123 89.2737L255.533 143.782C261.647 147.311 266.601 156.78 266.601 164.931C266.601 173.082 261.647 176.83 255.533 173.299Z" fill="#F2F2F2"/>
<path d="M264.278 159.572C264.278 151.422 259.322 141.954 253.209 138.423L158.798 83.915C155.954 82.2737 153.368 82.223 151.408 83.443L151.416 83.415L146.766 86.1297L148.905 86.371C148.158 87.9257 147.729 89.911 147.729 92.2843C147.729 100.435 152.685 109.904 158.798 113.434L253.209 167.942C254.405 168.631 255.552 169.034 256.63 169.19L256.058 171.082L260.645 168.408L260.606 168.41C262.856 167.007 264.278 163.927 264.278 159.572Z" fill="#D1078D"/>
<path d="M248.689 170.574L154.278 116.066C148.165 112.536 143.21 103.068 143.21 94.915C143.21 86.7643 148.165 83.0176 154.278 86.5483L248.689 141.056C254.802 144.586 259.758 154.055 259.758 162.206C259.758 170.356 254.802 174.103 248.689 170.574Z" fill="#EE1696"/>
<path d="M249.628 140.446L155.217 85.9377C152.106 84.1417 149.3 84.2391 147.289 85.8311C149.196 84.8591 151.626 85.0177 154.278 86.5484L248.689 141.056C254.802 144.584 259.758 154.055 259.758 162.206C259.758 166.21 258.558 169.142 256.617 170.68C259.105 169.41 260.697 166.211 260.697 161.595C260.697 153.444 255.741 143.975 249.628 140.446Z" fill="white"/>
<path d="M220.085 107.902L161.59 74.167C155.477 70.6363 150.521 61.1683 150.521 53.0163C150.521 44.8657 155.477 41.119 161.59 44.6483L220.085 78.383C226.198 81.9123 231.154 91.3817 231.154 99.5323C231.154 107.684 226.198 111.431 220.085 107.902Z" fill="#F2F2F2"/>
<path d="M228.362 94.1471C228.362 85.9964 223.406 76.527 217.293 72.9977L158.798 39.263C155.954 37.6217 153.368 37.5697 151.408 38.791L151.416 38.7617L146.766 41.4777L148.905 41.7177C148.158 43.2737 147.729 45.259 147.729 47.631C147.729 55.783 152.685 65.2511 158.798 68.7804L217.293 102.516C218.489 103.206 219.637 103.608 220.716 103.764L220.144 105.656L224.73 102.983L224.692 102.984C226.941 101.58 228.362 98.5017 228.362 94.1471Z" fill="#5F92D3"/>
<path d="M212.774 105.148L154.278 71.4124C148.165 67.8844 143.21 58.4137 143.21 50.263C143.21 42.1124 148.165 38.3657 154.278 41.8964L212.774 75.6297C218.888 79.1604 223.844 88.6284 223.844 96.7804C223.844 104.931 218.888 108.678 212.774 105.148Z" fill="#D9EFFB"/>
<path d="M213.712 75.019L155.217 41.2857C152.106 39.4897 149.3 39.5857 147.289 41.179C149.196 40.207 151.626 40.3643 154.278 41.8963L212.774 75.6297C218.888 79.159 223.844 88.6284 223.844 96.7804C223.844 100.784 222.644 103.716 220.702 105.254C223.19 103.984 224.782 100.786 224.782 96.1697C224.782 88.0177 219.825 78.5497 213.712 75.019Z" fill="white"/>
<path d="M186.352 74.219L162.165 60.2537V58.5124L186.352 72.475V74.219Z" fill="#5F92D3"/>
<path d="M205.572 85.3016L188.688 75.555V73.811L205.572 83.559V85.3016Z" fill="#5F92D3"/>
<path d="M176.77 72.4963L162.165 64.063V62.319L176.77 70.7523V72.4963Z" fill="#5F92D3"/>
<path d="M186.352 78.0256L179.048 73.8097V72.067L186.352 76.2843V78.0256Z" fill="#5F92D3"/>
<path d="M243.209 152.298L219.022 138.335V136.591L243.209 150.555V152.298Z" fill="white"/>
<path d="M216.769 137.031L199.886 127.284V125.542L216.769 135.29V137.031Z" fill="white"/>
<path d="M233.629 150.575L219.022 142.142V140.4L233.629 148.832V150.575Z" fill="white"/>
<path d="M243.209 156.107L235.906 151.891V150.147L243.209 154.363V156.107Z" fill="white"/>
<path d="M216.769 140.814L209.466 136.598V134.854L216.769 139.071V140.814Z" fill="white"/>
<path d="M100.213 157.962L96.4917 155.812L97.105 154.688L100.828 156.839L100.213 157.962Z" fill="#5F92D3"/>
<path d="M93.2104 153.918L93.8238 152.795L92.4104 151.979C92.2171 152.362 92.0504 152.755 91.8638 153.14L93.2104 153.918Z" fill="#5F92D3"/>
<path d="M107.216 162.004L103.494 159.855L104.109 158.734L107.83 160.882L107.216 162.004Z" fill="#5F92D3"/>
<path d="M114.218 166.048L110.497 163.899L111.112 162.776L114.833 164.924L114.218 166.048Z" fill="#5F92D3"/>
<path d="M121.222 170.091L117.501 167.943L118.114 166.819L121.837 168.967L121.222 170.091Z" fill="#5F92D3"/>
<path d="M128.225 174.134L124.504 171.986L125.119 170.862L128.84 173.011L128.225 174.134Z" fill="#5F92D3"/>
<path d="M135.228 178.178L131.506 176.028L132.121 174.906L135.842 177.054L135.228 178.178Z" fill="#5F92D3"/>
<path d="M142.232 182.22L138.509 180.072L139.124 178.948L142.846 181.098L142.232 182.22Z" fill="#5F92D3"/>
<path d="M149.235 186.263L145.513 184.115L146.127 182.992L149.849 185.14L149.235 186.263Z" fill="#5F92D3"/>
<path d="M167.452 167.522L163.667 165.338L164.44 164.28L167.452 166.018V167.522Z" fill="#5F92D3"/>
<path d="M174.574 171.634L170.789 169.45V167.946L174.574 170.131V171.634Z" fill="#5F92D3"/>
<path d="M181.697 175.747L177.912 173.562V172.058L181.697 174.243V175.747Z" fill="#5F92D3"/>
<path d="M188.82 179.859L185.034 177.674V176.171L188.82 178.355V179.859Z" fill="#5F92D3"/>
<path d="M195.943 183.971L192.157 181.787V180.283L195.943 182.467V183.971Z" fill="#5F92D3"/>
<path d="M203.065 188.083L199.28 185.899V184.395L203.065 186.579V188.083Z" fill="#5F92D3"/>
<path d="M197.648 126L184.028 118.147V116.404L197.648 124.256V126Z" fill="white"/>
</svg>
